# Blender 4.5.1 LTS
# www.blender.org
mtllib wallfloor1.mtl
o Cube
v -1.499715 -1.499714 12.555197
v -1.499715 1.499714 12.555197
v -1.499715 -1.499714 -12.555197
v -1.499715 1.499714 -12.555197
v 1.499715 -1.499714 12.555197
v 1.499715 1.499714 12.555197
v 1.499715 -1.499714 -12.555197
v 1.499715 1.499714 -12.555197
v -1.499715 -1.499714 2.044158
v -1.499715 1.499714 2.044158
v 1.499715 -1.499714 2.044158
v 1.499715 1.499714 2.044158
v -1.499715 1.499714 -1.345745
v 1.499715 -1.499714 -1.345745
v -1.499715 -1.499714 -1.345745
v 1.499715 1.499714 -1.345745
v -13.499715 -1.499714 -1.345745
v -13.499715 -1.499714 2.044158
v -13.499715 1.499714 2.044158
v -13.499715 1.499714 -1.345745
v 13.499715 1.499714 -1.345745
v 13.499715 1.499714 2.044158
v 13.499715 -1.499714 2.044158
v 13.499715 -1.499714 -1.345745
vn 1.0000 -0.0000 -0.0000
vn -0.0000 -0.0000 1.0000
vn -1.0000 -0.0000 -0.0000
vn -0.0000 -0.0000 -1.0000
vn -0.0000 1.0000 -0.0000
vn -0.0000 -1.0000 -0.0000
vt -0.724267 1.447327
vt -0.724267 3.769148
vt -1.345541 3.769148
vt -1.345541 1.447326
vt 3.003375 1.447327
vt 3.003375 2.068601
vt 2.382102 2.068600
vt 2.382102 1.447327
vt 0.518280 1.447327
vt 0.518280 3.624486
vt -0.102994 3.624486
vt -0.102994 1.447326
vt 3.624649 1.447327
vt 3.624649 2.068601
vt 3.003374 2.068601
vt 3.003374 1.447327
vt -2.133922 -0.848356
vt -3.724921 -2.334542
vt -3.300824 -2.788549
vt -1.709825 -1.302364
vt 2.196714 -0.848356
vt 0.605715 -2.334542
vt 1.029813 -2.788549
vt 2.620811 -1.302364
vt 2.709825 -0.369049
vt 3.133923 -0.823056
vt -1.620811 -0.369049
vt -1.196714 -0.823056
vt -0.013111 -3.118738
vt 0.500000 -2.639431
vt 1.139554 1.447327
vt 1.139553 3.624487
vt 0.518280 1.447327
vt -0.102994 1.447327
vt -0.102994 3.769149
vt -0.724268 3.769149
vt -0.724268 1.447327
vt 0.075902 1.215887
vt 0.500000 0.761880
vt 4.406538 1.215887
vt 4.830637 0.761880
vt -3.830637 3.932895
vt -3.830636 1.447326
vt -3.209363 1.447326
vt -3.209363 3.932895
vt 1.760828 1.447327
vt 1.760828 2.149479
vt 1.139554 2.149479
vt 1.139554 1.447326
vt -3.317525 1.447326
vt -3.830636 0.968018
vt -2.588089 1.447327
vt -2.588089 3.932895
vt -3.209362 1.447327
vt 4.317525 -3.118738
vt 4.830637 -2.639431
vt 2.382102 2.149479
vt 1.760828 1.447326
vt 1.013111 1.447326
vt 0.500000 0.968018
vt -1.966815 1.447327
vt -1.966815 3.932895
vt -2.588089 1.447327
vt -1.966815 1.447326
vt -1.345541 1.447326
vt -1.345541 3.932895
s 0
usemtl mossy_stone_wall
f 15/1/1 3/2/1 4/3/1 13/4/1
f 3/5/2 7/6/2 8/7/2 4/8/2
f 11/9/3 5/10/3 6/11/3 12/12/3
f 5/13/4 1/14/4 2/15/4 6/16/4
f 12/21/6 6/22/6 2/23/6 10/24/6
f 16/25/6 12/21/6 10/24/6 13/26/6
f 1/31/1 9/32/1 10/10/1 2/33/1
f 7/34/3 14/35/3 16/36/3 8/37/3
f 8/40/6 16/25/6 13/26/6 4/41/6
f 13/42/2 20/43/2 17/44/2 15/45/2
f 18/46/1 17/47/1 20/48/1 19/49/1
f 9/52/4 18/53/4 19/45/4 10/54/4
f 10/24/6 19/55/6 20/56/6 13/26/6
f 24/8/3 23/57/3 22/47/3 21/58/3
f 16/25/6 21/59/6 22/60/6 12/21/6
f 14/61/2 24/62/2 21/53/2 16/63/2
f 12/62/4 22/64/4 23/65/4 11/66/4
usemtl Flagstone_Ground
f 9/17/5 1/18/5 5/19/5 11/20/5
f 15/27/5 9/17/5 11/20/5 14/28/5
f 11/20/5 23/29/5 24/30/5 14/28/5
f 3/38/5 15/27/5 14/28/5 7/39/5
f 15/27/5 17/50/5 18/51/5 9/17/5
